<svg data-v-0dd9719b="" version="1.0" xmlns="http://www.w3.org/2000/svg" xmlns:xlink="http://www.w3.org/1999/xlink" width="100%" height="100%" viewBox="0 0 340.000000 250.000000" preserveAspectRatio="xMidYMid meet" color-interpolation-filters="sRGB" style="margin: auto;"> <rect data-v-0dd9719b="" x="0" y="0" width="100%" height="100%" fill="#fff" fill-opacity="1" class="background"></rect> <rect data-v-0dd9719b="" x="0" y="0" width="100%" height="100%" fill="url(#watermark)" fill-opacity="1" class="watermarklayer"></rect> <g data-v-0dd9719b="" fill="#333" class="icon-text-wrapper icon-svg-group iconsvg" transform="translate(48.01499938964844,94.8067626953125)"><g class="iconsvg-imagesvg" transform="translate(0,0)"><g><rect fill="#333" fill-opacity="0" stroke-width="2" x="0" y="0" width="60" height="60.386473429951685" class="image-rect"></rect> <svg x="0" y="0" width="60" height="60.386473429951685" filtersec="colorsb276549742" class="image-svg-svg primary" style="overflow: visible;"><svg xmlns="http://www.w3.org/2000/svg" viewBox="0 0 99.36000061035156 100"><title>资源 233</title><path fill="#009da0" d="M49.68 0l39.09 39.08h-16.1L49.68 62.06l-23-22.98H10.63L49.68 0z"></path><path fill="#00476e" d="M99.36 50.34L49.68 100 0 50.34h21.86l27.82 27.84 27.86-27.84h21.82z"></path></svg></svg> <!----></g></g> <g transform="translate(67,3.5332374572753906)"><g data-gra="path-name" fill-rule="" class="tp-name iconsvg-namesvg"><g transform="scale(1)"><g><path d="M44.4-21.33L44.4-21.33Q44.4-6.87 35.2-1.83L35.2-1.83 45.59 10.12 31.28 10.12 23.77 0.67 23.74 0.64 23.74 0.61 23.71 0.58Q13.7 0.58 8.36-5.03 3.03-10.65 3.03-21.38L3.03-21.38Q3.03-32 8.34-37.6 13.64-43.2 23.77-43.2L23.77-43.2Q33.92-43.2 39.16-37.65 44.4-32.09 44.4-21.33ZM15.13-21.33L15.13-21.33Q15.13-8.99 23.71-8.99L23.71-8.99Q28.07-8.99 30.18-11.99 32.29-14.98 32.29-21.33L32.29-21.33Q32.29-27.7 30.16-30.74 28.02-33.78 23.77-33.78L23.77-33.78Q15.13-33.78 15.13-21.33ZM90.74 0L78.17 0 76.08-7.97 62.26-7.97 60.11 0 47.48 0 61.36-42.71 76.69-42.71 90.74 0ZM64.65-17.4L73.69-17.4 71.86-24.38Q71.22-26.71 70.3-30.4 69.39-34.1 69.1-35.7L69.1-35.7Q68.83-34.21 68.06-30.81 67.29-27.41 64.65-17.4L64.65-17.4ZM135.84-42.53L135.84 0 120.77 0 105.23-29.97 104.97-29.97Q105.52-22.9 105.52-19.17L105.52-19.17 105.52 0 95.34 0 95.34-42.53 110.35-42.53 125.83-12.98 126-12.98Q125.6-19.41 125.6-23.3L125.6-23.3 125.6-42.53 135.84-42.53ZM152.94-42.53L160.22-26.77 167.55-42.53 180-42.53 166.01-16.61 166.01 0 154.43 0 154.43-16.26 140.43-42.53 152.94-42.53Z" transform="translate(-3.0299999713897705, 43.20000076293945)"></path></g> <!----> <!----> <!----> <!----> <!----> <!----> <!----></g></g> <!----></g></g><defs v-gra="od"></defs></svg>